# Blender 3.3.1
# www.blender.org
mtllib heart.mtl
o Cube
v -0.472491 -0.009295 -0.501521
v -0.513624 0.259671 -0.501521
v 0.000000 -0.479880 -0.501521
v 0.000000 0.325362 -0.501521
v -0.133412 -0.348650 -0.501521
v -0.065453 0.403733 -0.501521
v -0.206378 -0.287171 -0.501521
v -0.137524 0.449736 -0.501521
v -0.250908 -0.246595 -0.501521
v -0.214693 0.470950 -0.501521
v -0.295529 -0.210211 -0.501521
v -0.344486 0.458307 -0.501521
v -0.359866 -0.151780 -0.501521
v -0.437997 0.400122 -0.501521
v -0.279590 0.470666 -0.501521
v -0.273219 -0.228403 -0.501521
v -0.389517 0.434390 -0.501521
v -0.327698 -0.180996 -0.501521
v -0.419628 -0.087437 -0.501521
v -0.477536 0.348008 -0.501521
v -0.512032 0.122601 -0.501521
v -0.499161 0.057516 -0.501521
v -0.445197 -0.051816 -0.501521
v -0.495580 0.303840 -0.501521
v 0.472491 -0.009295 -0.501521
v 0.513624 0.259671 -0.501521
v 0.133412 -0.348650 -0.501521
v 0.065453 0.403733 -0.501521
v 0.206378 -0.287171 -0.501521
v 0.137524 0.449736 -0.501521
v 0.250908 -0.246595 -0.501521
v 0.214693 0.470950 -0.501521
v 0.295529 -0.210211 -0.501521
v 0.344486 0.458307 -0.501521
v 0.359866 -0.151780 -0.501521
v 0.437997 0.400122 -0.501521
v 0.279590 0.470666 -0.501521
v 0.273219 -0.228403 -0.501521
v 0.389517 0.434390 -0.501521
v 0.327698 -0.180996 -0.501521
v 0.419628 -0.087437 -0.501521
v 0.477536 0.348008 -0.501521
v 0.512032 0.122601 -0.501521
v 0.499161 0.057516 -0.501521
v 0.445197 -0.051816 -0.501521
v 0.495580 0.303840 -0.501521
vn -0.0000 -0.0000 -1.0000
vt 0.000000 0.000000
vt 0.000000 0.000000
vt 0.000000 0.000000
vt 0.000000 0.000000
vt 0.000000 0.000000
vt 0.000000 0.000000
vt 0.000000 0.000000
vt 0.000000 0.000000
vt 0.000000 0.000000
vt 0.000000 0.000000
vt 0.000000 0.000000
vt 0.000000 0.000000
vt 0.000000 0.000000
vt 0.000000 0.000000
vt 0.000000 0.000000
vt 0.000000 0.000000
vt 0.000000 0.000000
vt 0.000000 0.000000
vt 0.000000 0.000000
vt 0.000000 0.000000
vt 0.000000 0.000000
vt 0.000000 0.000000
vt 0.000000 0.000000
vt 0.000000 0.000000
vt 0.000000 0.000000
vt 0.000000 0.000000
vt 0.000000 0.000000
vt 0.000000 0.000000
vt 0.000000 0.000000
vt 0.000000 0.000000
vt 0.000000 0.000000
vt 0.000000 0.000000
vt 0.000000 0.000000
vt 0.000000 0.000000
vt 0.000000 0.000000
vt 0.000000 0.000000
vt 0.000000 0.000000
vt 0.000000 0.000000
vt 0.000000 0.000000
vt 0.000000 0.000000
vt 0.000000 0.000000
vt 0.000000 0.000000
vt 0.000000 0.000000
vt 0.000000 0.000000
vt 0.000000 0.000000
vt 0.000000 0.000000
s 0
f 22/22/1 21/21/1 2/2/1 24/24/1 20/20/1 14/14/1 17/17/1 12/12/1 15/15/1 10/10/1 8/8/1 6/6/1 4/4/1 28/28/1 30/30/1 32/32/1 37/37/1 34/34/1 39/39/1 36/36/1 42/42/1 46/46/1 26/26/1 43/43/1 44/44/1 25/25/1 45/45/1 41/41/1 35/35/1 40/40/1 33/33/1 38/38/1 31/31/1 29/29/1 27/27/1 3/3/1 5/5/1 7/7/1 9/9/1 16/16/1 11/11/1 18/18/1 13/13/1 19/19/1 23/23/1 1/1/1
